<mxfile host="app.diagrams.net" modified="2023-10-18T09:28:34.117Z" agent="Mozilla/5.0 (Windows NT 10.0; Win64; x64) AppleWebKit/537.36 (KHTML, like Gecko) Chrome/118.0.0.0 Safari/537.36 Edg/118.0.2088.46" etag="TFOD8JBMSuRN_ZxjfMHr" version="22.0.4" type="google">
  <diagram name="Page-1" id="2YBvvXClWsGukQMizWep">
    <mxGraphModel grid="1" page="1" gridSize="10" guides="1" tooltips="1" connect="1" arrows="1" fold="1" pageScale="1" pageWidth="850" pageHeight="1100" math="0" shadow="0">
      <root>
        <mxCell id="0" />
        <mxCell id="1" parent="0" />
        <mxCell id="Z8jXAHFTKWCSxKkOcrC9-4" value="" style="endArrow=none;dashed=1;html=1;rounded=0;" edge="1" parent="1" target="Z8jXAHFTKWCSxKkOcrC9-1">
          <mxGeometry width="50" height="50" relative="1" as="geometry">
            <mxPoint x="135" y="1740" as="sourcePoint" />
            <mxPoint x="270" y="180" as="targetPoint" />
          </mxGeometry>
        </mxCell>
        <mxCell id="Z8jXAHFTKWCSxKkOcrC9-2" value="" style="html=1;points=[];perimeter=orthogonalPerimeter;outlineConnect=0;targetShapes=umlLifeline;portConstraint=eastwest;newEdgeStyle={&quot;edgeStyle&quot;:&quot;elbowEdgeStyle&quot;,&quot;elbow&quot;:&quot;vertical&quot;,&quot;curved&quot;:0,&quot;rounded&quot;:0};" vertex="1" parent="1">
          <mxGeometry x="130" y="110" width="10" height="1620" as="geometry" />
        </mxCell>
        <mxCell id="h6oUPunSYnZBLj1ayV4U-2" value="" style="html=1;points=[];perimeter=orthogonalPerimeter;outlineConnect=0;targetShapes=umlLifeline;portConstraint=eastwest;newEdgeStyle={&quot;edgeStyle&quot;:&quot;elbowEdgeStyle&quot;,&quot;elbow&quot;:&quot;vertical&quot;,&quot;curved&quot;:0,&quot;rounded&quot;:0};" vertex="1" parent="1">
          <mxGeometry x="570" y="660" width="10" height="450" as="geometry" />
        </mxCell>
        <mxCell id="aM9ryv3xv72pqoxQDRHE-5" value="UI" style="shape=umlLifeline;perimeter=lifelinePerimeter;whiteSpace=wrap;html=1;container=0;dropTarget=0;collapsible=0;recursiveResize=0;outlineConnect=0;portConstraint=eastwest;newEdgeStyle={&quot;edgeStyle&quot;:&quot;elbowEdgeStyle&quot;,&quot;elbow&quot;:&quot;vertical&quot;,&quot;curved&quot;:0,&quot;rounded&quot;:0};" vertex="1" parent="1">
          <mxGeometry x="320" y="40" width="100" height="1700" as="geometry" />
        </mxCell>
        <mxCell id="aM9ryv3xv72pqoxQDRHE-6" value="" style="html=1;points=[];perimeter=orthogonalPerimeter;outlineConnect=0;targetShapes=umlLifeline;portConstraint=eastwest;newEdgeStyle={&quot;edgeStyle&quot;:&quot;elbowEdgeStyle&quot;,&quot;elbow&quot;:&quot;vertical&quot;,&quot;curved&quot;:0,&quot;rounded&quot;:0};" vertex="1" parent="aM9ryv3xv72pqoxQDRHE-5">
          <mxGeometry x="40" y="102" width="10" height="1588" as="geometry" />
        </mxCell>
        <mxCell id="34uXpPBD8WYakfRIqarh-1" value="System" style="shape=umlLifeline;perimeter=lifelinePerimeter;whiteSpace=wrap;html=1;container=0;dropTarget=0;collapsible=0;recursiveResize=0;outlineConnect=0;portConstraint=eastwest;newEdgeStyle={&quot;edgeStyle&quot;:&quot;elbowEdgeStyle&quot;,&quot;elbow&quot;:&quot;vertical&quot;,&quot;curved&quot;:0,&quot;rounded&quot;:0};" vertex="1" parent="1">
          <mxGeometry x="520" y="40" width="100" height="1700" as="geometry" />
        </mxCell>
        <mxCell id="34uXpPBD8WYakfRIqarh-2" value="" style="html=1;points=[];perimeter=orthogonalPerimeter;outlineConnect=0;targetShapes=umlLifeline;portConstraint=eastwest;newEdgeStyle={&quot;edgeStyle&quot;:&quot;elbowEdgeStyle&quot;,&quot;elbow&quot;:&quot;vertical&quot;,&quot;curved&quot;:0,&quot;rounded&quot;:0};" vertex="1" parent="34uXpPBD8WYakfRIqarh-1">
          <mxGeometry x="50" y="80" width="10" height="130" as="geometry" />
        </mxCell>
        <mxCell id="34uXpPBD8WYakfRIqarh-45" value="Create packet &lt;br&gt;Push to cart" style="html=1;align=left;spacingLeft=2;endArrow=block;rounded=0;edgeStyle=orthogonalEdgeStyle;curved=0;rounded=0;" edge="1" parent="34uXpPBD8WYakfRIqarh-1">
          <mxGeometry relative="1" as="geometry">
            <mxPoint x="60" y="493" as="sourcePoint" />
            <Array as="points">
              <mxPoint x="90" y="493" />
              <mxPoint x="90" y="523" />
            </Array>
            <mxPoint x="60" y="523" as="targetPoint" />
          </mxGeometry>
        </mxCell>
        <mxCell id="34uXpPBD8WYakfRIqarh-72" value="Create number of &lt;br&gt;page need purchase" style="html=1;align=left;spacingLeft=2;endArrow=block;rounded=0;edgeStyle=orthogonalEdgeStyle;curved=0;rounded=0;" edge="1" parent="34uXpPBD8WYakfRIqarh-1">
          <mxGeometry relative="1" as="geometry">
            <mxPoint x="60" y="690" as="sourcePoint" />
            <Array as="points">
              <mxPoint x="85" y="720" />
            </Array>
            <mxPoint x="60" y="720.0000000000001" as="targetPoint" />
          </mxGeometry>
        </mxCell>
        <mxCell id="34uXpPBD8WYakfRIqarh-3" value="BK Pay" style="shape=umlLifeline;perimeter=lifelinePerimeter;whiteSpace=wrap;html=1;container=0;dropTarget=0;collapsible=0;recursiveResize=0;outlineConnect=0;portConstraint=eastwest;newEdgeStyle={&quot;edgeStyle&quot;:&quot;elbowEdgeStyle&quot;,&quot;elbow&quot;:&quot;vertical&quot;,&quot;curved&quot;:0,&quot;rounded&quot;:0};" vertex="1" parent="1">
          <mxGeometry x="840" y="40" width="100" height="1700" as="geometry" />
        </mxCell>
        <mxCell id="34uXpPBD8WYakfRIqarh-4" value="" style="html=1;points=[];perimeter=orthogonalPerimeter;outlineConnect=0;targetShapes=umlLifeline;portConstraint=eastwest;newEdgeStyle={&quot;edgeStyle&quot;:&quot;elbowEdgeStyle&quot;,&quot;elbow&quot;:&quot;vertical&quot;,&quot;curved&quot;:0,&quot;rounded&quot;:0};" vertex="1" parent="34uXpPBD8WYakfRIqarh-3">
          <mxGeometry x="45" y="750" width="10" height="30" as="geometry" />
        </mxCell>
        <mxCell id="34uXpPBD8WYakfRIqarh-5" value="Open Website and Login" style="html=1;verticalAlign=bottom;endArrow=block;edgeStyle=elbowEdgeStyle;elbow=horizontal;curved=0;rounded=0;exitX=0.995;exitY=0.061;exitDx=0;exitDy=0;exitPerimeter=0;" edge="1" parent="1" target="34uXpPBD8WYakfRIqarh-2">
          <mxGeometry x="0.0018" relative="1" as="geometry">
            <mxPoint x="374.95000000000005" y="120.37" as="sourcePoint" />
            <Array as="points">
              <mxPoint x="140" y="120" />
            </Array>
            <mxPoint x="560" y="120" as="targetPoint" />
            <mxPoint as="offset" />
          </mxGeometry>
        </mxCell>
        <mxCell id="34uXpPBD8WYakfRIqarh-7" value="Student UI" style="html=1;verticalAlign=bottom;endArrow=open;dashed=1;endSize=8;curved=0;rounded=0;" edge="1" parent="1">
          <mxGeometry relative="1" as="geometry">
            <mxPoint x="570" y="140" as="sourcePoint" />
            <mxPoint x="370" y="140" as="targetPoint" />
          </mxGeometry>
        </mxCell>
        <mxCell id="34uXpPBD8WYakfRIqarh-10" value="Printing service" style="html=1;verticalAlign=bottom;endArrow=block;edgeStyle=elbowEdgeStyle;elbow=vertical;curved=0;rounded=0;entryX=0;entryY=0;entryDx=0;entryDy=0;entryPerimeter=0;" edge="1" parent="1">
          <mxGeometry relative="1" as="geometry">
            <mxPoint x="139.9999999999999" y="210" as="sourcePoint" />
            <Array as="points">
              <mxPoint x="235" y="210" />
            </Array>
            <mxPoint x="360" y="210" as="targetPoint" />
          </mxGeometry>
        </mxCell>
        <mxCell id="34uXpPBD8WYakfRIqarh-12" value="Load printing UI" style="html=1;verticalAlign=bottom;endArrow=block;curved=0;rounded=0;" edge="1" parent="1">
          <mxGeometry width="80" relative="1" as="geometry">
            <mxPoint x="370" y="220" as="sourcePoint" />
            <mxPoint x="570" y="220" as="targetPoint" />
          </mxGeometry>
        </mxCell>
        <mxCell id="34uXpPBD8WYakfRIqarh-13" value="Printing UI" style="html=1;verticalAlign=bottom;endArrow=open;dashed=1;endSize=8;curved=0;rounded=0;" edge="1" parent="1">
          <mxGeometry relative="1" as="geometry">
            <mxPoint x="570" y="250" as="sourcePoint" />
            <mxPoint x="370" y="250" as="targetPoint" />
          </mxGeometry>
        </mxCell>
        <mxCell id="34uXpPBD8WYakfRIqarh-15" value="Upload document files" style="html=1;verticalAlign=bottom;endArrow=block;curved=0;rounded=0;" edge="1" parent="1">
          <mxGeometry x="-0.0455" width="80" relative="1" as="geometry">
            <mxPoint x="140.0254545454545" y="320" as="sourcePoint" />
            <mxPoint x="359.98" y="320" as="targetPoint" />
            <mxPoint as="offset" />
          </mxGeometry>
        </mxCell>
        <mxCell id="34uXpPBD8WYakfRIqarh-21" value="Choosing properties UI" style="html=1;verticalAlign=bottom;endArrow=open;dashed=1;endSize=8;curved=0;rounded=0;" edge="1" parent="1">
          <mxGeometry relative="1" as="geometry">
            <mxPoint x="570" y="381" as="sourcePoint" />
            <mxPoint x="370" y="381" as="targetPoint" />
            <mxPoint as="offset" />
          </mxGeometry>
        </mxCell>
        <mxCell id="34uXpPBD8WYakfRIqarh-22" value="Check file type" style="html=1;verticalAlign=bottom;endArrow=block;curved=0;rounded=0;entryX=0;entryY=0.531;entryDx=0;entryDy=0;entryPerimeter=0;" edge="1" parent="1">
          <mxGeometry width="80" relative="1" as="geometry">
            <mxPoint x="369.9117647058823" y="330.00000000000006" as="sourcePoint" />
            <mxPoint x="570" y="330.00000000000006" as="targetPoint" />
          </mxGeometry>
        </mxCell>
        <mxCell id="34uXpPBD8WYakfRIqarh-23" value="" style="endArrow=open;endFill=1;endSize=12;html=1;rounded=0;" edge="1" parent="1">
          <mxGeometry width="160" relative="1" as="geometry">
            <mxPoint x="140" y="403" as="sourcePoint" />
            <mxPoint x="360" y="403" as="targetPoint" />
          </mxGeometry>
        </mxCell>
        <mxCell id="34uXpPBD8WYakfRIqarh-24" value="" style="endArrow=open;endFill=1;endSize=12;html=1;rounded=0;" edge="1" parent="1">
          <mxGeometry width="160" relative="1" as="geometry">
            <mxPoint x="140" y="475" as="sourcePoint" />
            <mxPoint x="360" y="475" as="targetPoint" />
          </mxGeometry>
        </mxCell>
        <mxCell id="34uXpPBD8WYakfRIqarh-25" value="Choose printer" style="text;html=1;align=center;verticalAlign=middle;resizable=0;points=[];autosize=1;strokeColor=none;fillColor=none;" vertex="1" parent="1">
          <mxGeometry x="200" y="381" width="100" height="30" as="geometry" />
        </mxCell>
        <mxCell id="34uXpPBD8WYakfRIqarh-26" value="Select printing properties" style="text;html=1;align=center;verticalAlign=middle;resizable=0;points=[];autosize=1;strokeColor=none;fillColor=none;" vertex="1" parent="1">
          <mxGeometry x="175" y="453" width="160" height="30" as="geometry" />
        </mxCell>
        <mxCell id="34uXpPBD8WYakfRIqarh-27" value="" style="endArrow=open;endFill=1;endSize=12;html=1;rounded=0;" edge="1" parent="1">
          <mxGeometry width="160" relative="1" as="geometry">
            <mxPoint x="370" y="423" as="sourcePoint" />
            <mxPoint x="570" y="423" as="targetPoint" />
          </mxGeometry>
        </mxCell>
        <mxCell id="34uXpPBD8WYakfRIqarh-28" value="Record the printer" style="text;html=1;align=center;verticalAlign=middle;resizable=0;points=[];autosize=1;strokeColor=none;fillColor=none;" vertex="1" parent="1">
          <mxGeometry x="405" y="401" width="120" height="30" as="geometry" />
        </mxCell>
        <mxCell id="34uXpPBD8WYakfRIqarh-29" value="" style="endArrow=open;endFill=1;endSize=12;html=1;rounded=0;" edge="1" parent="1">
          <mxGeometry width="160" relative="1" as="geometry">
            <mxPoint x="370" y="495" as="sourcePoint" />
            <mxPoint x="570" y="495" as="targetPoint" />
          </mxGeometry>
        </mxCell>
        <mxCell id="34uXpPBD8WYakfRIqarh-31" value="Check printing properties" style="text;html=1;align=center;verticalAlign=middle;resizable=0;points=[];autosize=1;strokeColor=none;fillColor=none;" vertex="1" parent="1">
          <mxGeometry x="385" y="473" width="160" height="30" as="geometry" />
        </mxCell>
        <mxCell id="34uXpPBD8WYakfRIqarh-34" value="Return printing UI" style="html=1;verticalAlign=bottom;endArrow=open;dashed=1;endSize=8;curved=0;rounded=0;" edge="1" parent="1">
          <mxGeometry relative="1" as="geometry">
            <mxPoint x="569.9999999999998" y="579.9999999999999" as="sourcePoint" />
            <mxPoint x="370" y="579.9999999999999" as="targetPoint" />
            <mxPoint as="offset" />
          </mxGeometry>
        </mxCell>
        <mxCell id="34uXpPBD8WYakfRIqarh-36" value="Loop" style="shape=umlFrame;whiteSpace=wrap;html=1;pointerEvents=0;" vertex="1" parent="1">
          <mxGeometry x="110" y="230" width="590" height="360" as="geometry" />
        </mxCell>
        <mxCell id="34uXpPBD8WYakfRIqarh-37" value="[ Each packet ]" style="text;html=1;align=center;verticalAlign=middle;resizable=0;points=[];autosize=1;strokeColor=none;fillColor=none;" vertex="1" parent="1">
          <mxGeometry x="180" y="230" width="100" height="30" as="geometry" />
        </mxCell>
        <mxCell id="34uXpPBD8WYakfRIqarh-57" value="Loop" style="shape=umlFrame;whiteSpace=wrap;html=1;pointerEvents=0;" vertex="1" parent="1">
          <mxGeometry x="120" y="431" width="570" height="92" as="geometry" />
        </mxCell>
        <mxCell id="34uXpPBD8WYakfRIqarh-58" value="[Check result = False]" style="text;html=1;align=center;verticalAlign=middle;resizable=0;points=[];autosize=1;strokeColor=none;fillColor=none;" vertex="1" parent="1">
          <mxGeometry x="180" y="431" width="140" height="30" as="geometry" />
        </mxCell>
        <mxCell id="34uXpPBD8WYakfRIqarh-61" value="Check result" style="html=1;verticalAlign=bottom;endArrow=open;dashed=1;endSize=8;curved=0;rounded=0;" edge="1" parent="1">
          <mxGeometry relative="1" as="geometry">
            <mxPoint x="569.5" y="513.0000000000001" as="sourcePoint" />
            <mxPoint x="369.7857142857142" y="513.0000000000001" as="targetPoint" />
          </mxGeometry>
        </mxCell>
        <mxCell id="34uXpPBD8WYakfRIqarh-63" value="Loop" style="shape=umlFrame;whiteSpace=wrap;html=1;pointerEvents=0;" vertex="1" parent="1">
          <mxGeometry x="120" y="270" width="570" height="92" as="geometry" />
        </mxCell>
        <mxCell id="34uXpPBD8WYakfRIqarh-64" value="[Check result = False]" style="text;html=1;align=center;verticalAlign=middle;resizable=0;points=[];autosize=1;strokeColor=none;fillColor=none;" vertex="1" parent="1">
          <mxGeometry x="200" y="270" width="140" height="30" as="geometry" />
        </mxCell>
        <mxCell id="34uXpPBD8WYakfRIqarh-65" value="Check result" style="html=1;verticalAlign=bottom;endArrow=open;dashed=1;endSize=8;curved=0;rounded=0;" edge="1" parent="1">
          <mxGeometry relative="1" as="geometry">
            <mxPoint x="569.71" y="350.0000000000001" as="sourcePoint" />
            <mxPoint x="369.9957142857142" y="350.0000000000001" as="targetPoint" />
          </mxGeometry>
        </mxCell>
        <mxCell id="34uXpPBD8WYakfRIqarh-66" value="Click Print button" style="html=1;verticalAlign=bottom;endArrow=block;curved=0;rounded=0;" edge="1" parent="1">
          <mxGeometry x="-0.0429" width="80" relative="1" as="geometry">
            <mxPoint x="140.0454545454545" y="640" as="sourcePoint" />
            <mxPoint x="360" y="640" as="targetPoint" />
            <mxPoint as="offset" />
          </mxGeometry>
        </mxCell>
        <mxCell id="34uXpPBD8WYakfRIqarh-67" value="Printing service" style="html=1;verticalAlign=bottom;endArrow=block;curved=0;rounded=0;" edge="1" parent="1">
          <mxGeometry x="-0.0455" width="80" relative="1" as="geometry">
            <mxPoint x="369.9954545454545" y="660" as="sourcePoint" />
            <mxPoint x="570" y="660" as="targetPoint" />
            <mxPoint as="offset" />
          </mxGeometry>
        </mxCell>
        <mxCell id="34uXpPBD8WYakfRIqarh-73" value="Purchase packet" style="html=1;verticalAlign=bottom;endArrow=block;curved=0;rounded=0;" edge="1" parent="1" target="34uXpPBD8WYakfRIqarh-3">
          <mxGeometry width="80" relative="1" as="geometry">
            <mxPoint x="580" y="790" as="sourcePoint" />
            <mxPoint x="785" y="790" as="targetPoint" />
            <mxPoint as="offset" />
          </mxGeometry>
        </mxCell>
        <mxCell id="34uXpPBD8WYakfRIqarh-74" value="Payment status" style="html=1;verticalAlign=bottom;endArrow=open;dashed=1;endSize=8;curved=0;rounded=0;" edge="1" parent="1" source="34uXpPBD8WYakfRIqarh-4">
          <mxGeometry relative="1" as="geometry">
            <mxPoint x="785" y="820" as="sourcePoint" />
            <mxPoint x="580" y="820" as="targetPoint" />
          </mxGeometry>
        </mxCell>
        <mxCell id="34uXpPBD8WYakfRIqarh-77" value="Printing action" style="html=1;align=left;spacingLeft=2;endArrow=block;rounded=0;edgeStyle=orthogonalEdgeStyle;curved=0;rounded=0;" edge="1" parent="1">
          <mxGeometry relative="1" as="geometry">
            <mxPoint x="580" y="880" as="sourcePoint" />
            <Array as="points">
              <mxPoint x="605" y="910" />
            </Array>
            <mxPoint x="580" y="910.0000000000001" as="targetPoint" />
          </mxGeometry>
        </mxCell>
        <mxCell id="34uXpPBD8WYakfRIqarh-78" value="Update page number" style="html=1;align=left;spacingLeft=2;endArrow=block;rounded=0;edgeStyle=orthogonalEdgeStyle;curved=0;rounded=0;" edge="1" parent="1">
          <mxGeometry relative="1" as="geometry">
            <mxPoint x="580" y="920" as="sourcePoint" />
            <Array as="points">
              <mxPoint x="605" y="950" />
            </Array>
            <mxPoint x="580" y="950.0000000000001" as="targetPoint" />
          </mxGeometry>
        </mxCell>
        <mxCell id="34uXpPBD8WYakfRIqarh-80" value="Opt" style="shape=umlFrame;whiteSpace=wrap;html=1;pointerEvents=0;" vertex="1" parent="1">
          <mxGeometry x="560" y="840" width="240" height="120" as="geometry" />
        </mxCell>
        <mxCell id="34uXpPBD8WYakfRIqarh-81" value="[payment status = paid]" style="text;html=1;align=center;verticalAlign=middle;resizable=0;points=[];autosize=1;strokeColor=none;fillColor=none;" vertex="1" parent="1">
          <mxGeometry x="620" y="840" width="150" height="30" as="geometry" />
        </mxCell>
        <mxCell id="34uXpPBD8WYakfRIqarh-85" value="alt" style="shape=umlFrame;whiteSpace=wrap;html=1;pointerEvents=0;" vertex="1" parent="1">
          <mxGeometry x="550" y="690" width="360" height="390" as="geometry" />
        </mxCell>
        <mxCell id="34uXpPBD8WYakfRIqarh-86" value="[not enough page]" style="text;html=1;align=center;verticalAlign=middle;resizable=0;points=[];autosize=1;strokeColor=none;fillColor=none;" vertex="1" parent="1">
          <mxGeometry x="610" y="690" width="120" height="30" as="geometry" />
        </mxCell>
        <mxCell id="34uXpPBD8WYakfRIqarh-87" value="Printing action" style="html=1;align=left;spacingLeft=2;endArrow=block;rounded=0;edgeStyle=orthogonalEdgeStyle;curved=0;rounded=0;" edge="1" parent="1">
          <mxGeometry x="-0.0009" relative="1" as="geometry">
            <mxPoint x="580" y="1000" as="sourcePoint" />
            <Array as="points">
              <mxPoint x="605" y="1030" />
            </Array>
            <mxPoint x="580" y="1030" as="targetPoint" />
            <mxPoint as="offset" />
          </mxGeometry>
        </mxCell>
        <mxCell id="34uXpPBD8WYakfRIqarh-88" value="Update page number" style="html=1;align=left;spacingLeft=2;endArrow=block;rounded=0;edgeStyle=orthogonalEdgeStyle;curved=0;rounded=0;" edge="1" parent="1">
          <mxGeometry relative="1" as="geometry">
            <mxPoint x="580" y="1040" as="sourcePoint" />
            <Array as="points">
              <mxPoint x="605" y="1070" />
            </Array>
            <mxPoint x="580" y="1070" as="targetPoint" />
          </mxGeometry>
        </mxCell>
        <mxCell id="h6oUPunSYnZBLj1ayV4U-1" value="" style="html=1;points=[];perimeter=orthogonalPerimeter;outlineConnect=0;targetShapes=umlLifeline;portConstraint=eastwest;newEdgeStyle={&quot;edgeStyle&quot;:&quot;elbowEdgeStyle&quot;,&quot;elbow&quot;:&quot;vertical&quot;,&quot;curved&quot;:0,&quot;rounded&quot;:0};" vertex="1" parent="1">
          <mxGeometry x="570" y="331" width="10" height="249" as="geometry" />
        </mxCell>
        <mxCell id="h6oUPunSYnZBLj1ayV4U-31" value="Alt" style="shape=umlFrame;whiteSpace=wrap;html=1;pointerEvents=0;" vertex="1" parent="1">
          <mxGeometry x="100" y="170" width="820" height="1550" as="geometry" />
        </mxCell>
        <mxCell id="h6oUPunSYnZBLj1ayV4U-32" value="[Choose Printer service = True]" style="text;html=1;align=center;verticalAlign=middle;resizable=0;points=[];autosize=1;strokeColor=none;fillColor=none;" vertex="1" parent="1">
          <mxGeometry x="155" y="164" width="190" height="30" as="geometry" />
        </mxCell>
        <mxCell id="h6oUPunSYnZBLj1ayV4U-33" value="" style="html=1;points=[];perimeter=orthogonalPerimeter;outlineConnect=0;targetShapes=umlLifeline;portConstraint=eastwest;newEdgeStyle={&quot;edgeStyle&quot;:&quot;elbowEdgeStyle&quot;,&quot;elbow&quot;:&quot;vertical&quot;,&quot;curved&quot;:0,&quot;rounded&quot;:0};" vertex="1" parent="1">
          <mxGeometry x="570" y="1300" width="10" height="40" as="geometry" />
        </mxCell>
        <mxCell id="h6oUPunSYnZBLj1ayV4U-34" value="Purchase page service" style="html=1;verticalAlign=bottom;endArrow=block;curved=0;rounded=0;" edge="1" parent="1">
          <mxGeometry x="-0.0455" width="80" relative="1" as="geometry">
            <mxPoint x="140.02545454545452" y="1280" as="sourcePoint" />
            <mxPoint x="359.98" y="1280" as="targetPoint" />
            <mxPoint as="offset" />
          </mxGeometry>
        </mxCell>
        <mxCell id="h6oUPunSYnZBLj1ayV4U-35" value="Load Purchase page UI" style="html=1;verticalAlign=bottom;endArrow=block;curved=0;rounded=0;" edge="1" parent="1">
          <mxGeometry x="-0.0455" width="80" relative="1" as="geometry">
            <mxPoint x="369.99545454545455" y="1300" as="sourcePoint" />
            <mxPoint x="570" y="1300" as="targetPoint" />
            <mxPoint as="offset" />
          </mxGeometry>
        </mxCell>
        <mxCell id="h6oUPunSYnZBLj1ayV4U-36" value="Return purchase page UI" style="html=1;verticalAlign=bottom;endArrow=open;dashed=1;endSize=8;curved=0;rounded=0;" edge="1" parent="1">
          <mxGeometry relative="1" as="geometry">
            <mxPoint x="570" y="1340" as="sourcePoint" />
            <mxPoint x="369" y="1340" as="targetPoint" />
          </mxGeometry>
        </mxCell>
        <mxCell id="h6oUPunSYnZBLj1ayV4U-37" value="Loop" style="shape=umlFrame;whiteSpace=wrap;html=1;pointerEvents=0;" vertex="1" parent="1">
          <mxGeometry x="120" y="1350" width="470" height="90" as="geometry" />
        </mxCell>
        <mxCell id="h6oUPunSYnZBLj1ayV4U-38" value="Choose number of page" style="html=1;verticalAlign=bottom;endArrow=block;curved=0;rounded=0;" edge="1" parent="1">
          <mxGeometry x="-0.0455" width="80" relative="1" as="geometry">
            <mxPoint x="140.0454545454545" y="1400" as="sourcePoint" />
            <mxPoint x="360" y="1400" as="targetPoint" />
            <mxPoint as="offset" />
          </mxGeometry>
        </mxCell>
        <mxCell id="h6oUPunSYnZBLj1ayV4U-39" value="Check valid page" style="html=1;verticalAlign=bottom;endArrow=block;curved=0;rounded=0;" edge="1" parent="1">
          <mxGeometry x="-0.0455" width="80" relative="1" as="geometry">
            <mxPoint x="369.99545454545455" y="1410" as="sourcePoint" />
            <mxPoint x="570" y="1410" as="targetPoint" />
            <mxPoint as="offset" />
          </mxGeometry>
        </mxCell>
        <mxCell id="h6oUPunSYnZBLj1ayV4U-40" value="Return valid page" style="html=1;verticalAlign=bottom;endArrow=open;dashed=1;endSize=8;curved=0;rounded=0;" edge="1" parent="1">
          <mxGeometry relative="1" as="geometry">
            <mxPoint x="570" y="1430" as="sourcePoint" />
            <mxPoint x="370.04761904761904" y="1430" as="targetPoint" />
          </mxGeometry>
        </mxCell>
        <mxCell id="h6oUPunSYnZBLj1ayV4U-41" value="[is_valid_page = False]" style="text;html=1;align=center;verticalAlign=middle;resizable=0;points=[];autosize=1;strokeColor=none;fillColor=none;" vertex="1" parent="1">
          <mxGeometry x="180" y="1350" width="150" height="30" as="geometry" />
        </mxCell>
        <mxCell id="h6oUPunSYnZBLj1ayV4U-42" value="Create number of &lt;br&gt;page need purchase" style="html=1;align=left;spacingLeft=2;endArrow=block;rounded=0;edgeStyle=orthogonalEdgeStyle;curved=0;rounded=0;" edge="1" parent="1">
          <mxGeometry relative="1" as="geometry">
            <mxPoint x="580" y="1450" as="sourcePoint" />
            <Array as="points">
              <mxPoint x="605" y="1480" />
            </Array>
            <mxPoint x="580" y="1480" as="targetPoint" />
          </mxGeometry>
        </mxCell>
        <mxCell id="h6oUPunSYnZBLj1ayV4U-43" value="" style="html=1;points=[];perimeter=orthogonalPerimeter;outlineConnect=0;targetShapes=umlLifeline;portConstraint=eastwest;newEdgeStyle={&quot;edgeStyle&quot;:&quot;elbowEdgeStyle&quot;,&quot;elbow&quot;:&quot;vertical&quot;,&quot;curved&quot;:0,&quot;rounded&quot;:0};" vertex="1" parent="1">
          <mxGeometry x="570" y="1410" width="10" height="230" as="geometry" />
        </mxCell>
        <mxCell id="h6oUPunSYnZBLj1ayV4U-45" value="Purchase packet" style="html=1;verticalAlign=bottom;endArrow=block;curved=0;rounded=0;" edge="1" parent="1">
          <mxGeometry width="80" relative="1" as="geometry">
            <mxPoint x="580" y="1510" as="sourcePoint" />
            <mxPoint x="890" y="1510" as="targetPoint" />
            <mxPoint as="offset" />
          </mxGeometry>
        </mxCell>
        <mxCell id="h6oUPunSYnZBLj1ayV4U-46" value="Payment status" style="html=1;verticalAlign=bottom;endArrow=open;dashed=1;endSize=8;curved=0;rounded=0;" edge="1" parent="1">
          <mxGeometry relative="1" as="geometry">
            <mxPoint x="885" y="1540" as="sourcePoint" />
            <mxPoint x="580" y="1540" as="targetPoint" />
          </mxGeometry>
        </mxCell>
        <mxCell id="h6oUPunSYnZBLj1ayV4U-47" value="Update Page number" style="html=1;align=left;spacingLeft=2;endArrow=block;rounded=0;edgeStyle=orthogonalEdgeStyle;curved=0;rounded=0;" edge="1" parent="1">
          <mxGeometry relative="1" as="geometry">
            <mxPoint x="580" y="1590" as="sourcePoint" />
            <Array as="points">
              <mxPoint x="605" y="1620" />
            </Array>
            <mxPoint x="580" y="1620" as="targetPoint" />
          </mxGeometry>
        </mxCell>
        <mxCell id="h6oUPunSYnZBLj1ayV4U-50" value="opt" style="shape=umlFrame;whiteSpace=wrap;html=1;pointerEvents=0;" vertex="1" parent="1">
          <mxGeometry x="560" y="1550" width="240" height="100" as="geometry" />
        </mxCell>
        <mxCell id="h6oUPunSYnZBLj1ayV4U-51" value="[payment status = paid]" style="text;html=1;align=center;verticalAlign=middle;resizable=0;points=[];autosize=1;strokeColor=none;fillColor=none;" vertex="1" parent="1">
          <mxGeometry x="620" y="1550" width="150" height="30" as="geometry" />
        </mxCell>
        <mxCell id="h6oUPunSYnZBLj1ayV4U-55" value="" style="endArrow=none;dashed=1;html=1;rounded=0;exitX=0.001;exitY=0.708;exitDx=0;exitDy=0;exitPerimeter=0;entryX=1.001;entryY=0.708;entryDx=0;entryDy=0;entryPerimeter=0;" edge="1" parent="1">
          <mxGeometry width="50" height="50" relative="1" as="geometry">
            <mxPoint x="99.99999999999994" y="1240.0040000000001" as="sourcePoint" />
            <mxPoint x="919.9999999999999" y="1240.0040000000001" as="targetPoint" />
          </mxGeometry>
        </mxCell>
        <mxCell id="h6oUPunSYnZBLj1ayV4U-56" value="" style="html=1;points=[];perimeter=orthogonalPerimeter;outlineConnect=0;targetShapes=umlLifeline;portConstraint=eastwest;newEdgeStyle={&quot;edgeStyle&quot;:&quot;elbowEdgeStyle&quot;,&quot;elbow&quot;:&quot;vertical&quot;,&quot;curved&quot;:0,&quot;rounded&quot;:0};" vertex="1" parent="1">
          <mxGeometry x="885" y="1510" width="10" height="30" as="geometry" />
        </mxCell>
        <mxCell id="Z8jXAHFTKWCSxKkOcrC9-1" value="Student user" style="shape=umlActor;verticalLabelPosition=bottom;verticalAlign=top;html=1;outlineConnect=0;" vertex="1" parent="1">
          <mxGeometry x="120" y="20" width="30" height="60" as="geometry" />
        </mxCell>
        <mxCell id="Z8jXAHFTKWCSxKkOcrC9-5" value="" style="endArrow=none;dashed=1;html=1;rounded=0;exitX=0.001;exitY=0.632;exitDx=0;exitDy=0;exitPerimeter=0;entryX=0.998;entryY=0.63;entryDx=0;entryDy=0;entryPerimeter=0;" edge="1" parent="1">
          <mxGeometry width="50" height="50" relative="1" as="geometry">
            <mxPoint x="551.0800000000002" y="970.98" as="sourcePoint" />
            <mxPoint x="910.0000000000002" y="969.9999999999998" as="targetPoint" />
          </mxGeometry>
        </mxCell>
        <mxCell id="Z8jXAHFTKWCSxKkOcrC9-6" value="[enough page]" style="text;html=1;align=center;verticalAlign=middle;resizable=0;points=[];autosize=1;strokeColor=none;fillColor=none;" vertex="1" parent="1">
          <mxGeometry x="580" y="970" width="100" height="30" as="geometry" />
        </mxCell>
        <mxCell id="Z8jXAHFTKWCSxKkOcrC9-9" value="Printing result" style="html=1;verticalAlign=bottom;endArrow=open;dashed=1;endSize=8;curved=0;rounded=0;" edge="1" parent="1">
          <mxGeometry relative="1" as="geometry">
            <mxPoint x="569.5" y="1090" as="sourcePoint" />
            <mxPoint x="370" y="1090" as="targetPoint" />
          </mxGeometry>
        </mxCell>
        <mxCell id="Z8jXAHFTKWCSxKkOcrC9-10" value="" style="endArrow=classic;html=1;rounded=0;" edge="1" parent="1">
          <mxGeometry width="50" height="50" relative="1" as="geometry">
            <mxPoint x="570" y="1111.9999999999998" as="sourcePoint" />
            <mxPoint x="370.375" y="1111.9999999999998" as="targetPoint" />
          </mxGeometry>
        </mxCell>
        <mxCell id="Z8jXAHFTKWCSxKkOcrC9-11" value="Clear cart" style="text;html=1;align=center;verticalAlign=middle;resizable=0;points=[];autosize=1;strokeColor=none;fillColor=none;" vertex="1" parent="1">
          <mxGeometry x="425" y="1090" width="80" height="30" as="geometry" />
        </mxCell>
      </root>
    </mxGraphModel>
  </diagram>
</mxfile>
